<svg width="17" height="16" viewBox="0 0 17 16" fill="none" xmlns="http://www.w3.org/2000/svg">
<path d="M6.17416 12.2123C6.3706 12.2123 6.55669 12.2485 6.73244 12.3208C6.9082 12.3932 7.06328 12.494 7.19768 12.6232C7.33208 12.7525 7.43547 12.905 7.50784 13.0807C7.58021 13.2565 7.61639 13.4426 7.61639 13.639C7.61639 13.8354 7.58021 14.0215 7.50784 14.1973C7.43547 14.373 7.33208 14.5255 7.19768 14.6548C7.06328 14.784 6.9082 14.8874 6.73244 14.9649C6.55669 15.0425 6.3706 15.0812 6.17416 15.0812C5.96739 15.0812 5.77871 15.0425 5.60813 14.9649C5.43754 14.8874 5.28505 14.784 5.15065 14.6548C5.01624 14.5255 4.91286 14.373 4.84049 14.1973C4.76812 14.0215 4.73193 13.8354 4.73193 13.639C4.73193 13.4426 4.76812 13.2565 4.84049 13.0807C4.91286 12.905 5.01624 12.7525 5.15065 12.6232C5.28505 12.494 5.43754 12.3932 5.60813 12.3208C5.77871 12.2485 5.96739 12.2123 6.17416 12.2123Z" fill="#F7BC38"/>
<path d="M12.6253 12.2433C12.8218 12.2433 13.0104 12.2795 13.1914 12.3518C13.3723 12.4242 13.5274 12.525 13.6566 12.6542C13.7858 12.7835 13.8892 12.936 13.9668 13.1117C14.0443 13.2875 14.0831 13.4736 14.0831 13.67C14.0831 13.8664 14.0443 14.0525 13.9668 14.2283C13.8892 14.404 13.7858 14.5565 13.6566 14.6858C13.5274 14.815 13.3723 14.9184 13.1914 14.9959C13.0104 15.0735 12.8218 15.1122 12.6253 15.1122C12.4289 15.1122 12.2428 15.0735 12.0671 14.9959C11.8913 14.9184 11.7388 14.815 11.6096 14.6858C11.4803 14.5565 11.377 14.404 11.2994 14.2283C11.2219 14.0525 11.1831 13.8664 11.1831 13.67C11.1831 13.4736 11.2219 13.2875 11.2994 13.1117C11.377 12.936 11.4803 12.7835 11.6096 12.6542C11.7388 12.525 11.8913 12.4242 12.0671 12.3518C12.2428 12.2795 12.4289 12.2433 12.6253 12.2433Z" fill="#F7BC38"/>
<path d="M15.9053 3.3723C16.0655 3.44405 16.1793 3.53255 16.2465 3.63778C16.3137 3.74302 16.3447 3.85543 16.3395 3.97502C16.3343 4.0946 16.3162 4.19745 16.2852 4.28355C16.2542 4.36966 14.4527 10.6528 14.3545 10.7915C14.2563 10.9302 14.0624 10.9996 13.773 10.9996H13.0286H11.5863H9.80294H7.98853H6.49977H5.64684C5.44007 10.9996 5.2669 10.9565 5.12733 10.8704C4.98776 10.7843 4.87145 10.6719 4.7784 10.5332C4.68536 10.3945 4.6104 10.2438 4.55354 10.0811C4.49668 9.9185 4.45274 9.76543 4.42172 9.62193C4.41139 9.56452 4.38295 9.4258 4.33643 9.20576C4.28991 8.98572 4.23305 8.71067 4.16584 8.38061C4.09864 8.05055 4.02369 7.68222 3.94098 7.27562C3.85827 6.86903 3.77556 6.46004 3.69286 6.04866C3.57167 5.45254 3.34621 4.36304 3.19126 3.61581C3.09505 3.15185 2.68637 2.81981 2.21254 2.81981H1.86293C1.70785 2.81981 1.57862 2.78393 1.47524 2.71218C1.37185 2.64042 1.28656 2.55432 1.21936 2.45387C1.15216 2.35342 1.10563 2.24579 1.07979 2.13098C1.05394 2.01618 1.04102 1.91094 1.04102 1.81527C1.04102 1.62393 1.1108 1.46608 1.25037 1.34171C1.38994 1.21734 1.57862 1.15515 1.81641 1.15515H2.15758H2.46774H2.85543H3.3827C3.58947 1.15515 3.75489 1.18385 3.87895 1.24125C4.00301 1.29866 4.10123 1.37041 4.1736 1.45651C4.24597 1.54261 4.29766 1.6335 4.32868 1.72917C4.35969 1.82484 4.38554 1.90616 4.40622 1.97313C4.42689 2.04966 4.44757 2.15729 4.46825 2.29601C4.48892 2.43473 4.5096 2.57585 4.53028 2.71935C4.58686 3.03349 4.85733 3.26467 5.17653 3.26467H15.2307C15.5202 3.26467 15.745 3.30055 15.9053 3.3723Z" fill="#F7BC38"/>
</svg>
