<svg width="24" height="23" viewBox="0 0 24 23" fill="none" xmlns="http://www.w3.org/2000/svg">
<path fill-rule="evenodd" clip-rule="evenodd" d="M11.5816 20.5567C10.8408 20.5567 10.1191 20.4901 9.41679 20.375L5.58339 22.6834C5.03808 23.0118 4.34314 22.619 4.34314 21.9825V18.344C1.69759 16.5004 0 13.6739 0 10.4994C0 4.94487 5.18539 0.442017 11.5817 0.442017C17.9776 0.442017 23.1634 4.94489 23.1634 10.4994C23.1634 16.0542 17.9776 20.5567 11.5816 20.5567ZM11.5816 2.33193C6.25778 2.33193 1.94186 6.00362 1.94186 10.5322C1.94186 13.3109 3.5708 15.7627 6.05607 17.2455L6.02271 19.6834C6.01833 20.0034 6.36653 20.2043 6.64137 20.0403L9.25409 18.4814C10.0008 18.6396 10.7775 18.7324 11.5817 18.7324C16.9059 18.7324 21.2214 15.0614 21.2214 10.5322C21.2214 6.00365 16.9059 2.33193 11.5816 2.33193ZM15.9248 10.4994C15.9248 11.2932 16.573 11.9361 17.3725 11.9361C18.172 11.9361 18.8202 11.2932 18.8202 10.4994C18.8202 9.706 18.172 9.06265 17.3725 9.06265C16.573 9.06265 15.9248 9.70595 15.9248 10.4994ZM11.5816 11.9361C10.7821 11.9361 10.134 11.2932 10.134 10.4994C10.134 9.70595 10.7822 9.06265 11.5816 9.06265C12.3812 9.06265 13.0294 9.706 13.0294 10.4994C13.0294 11.2932 12.3812 11.9361 11.5816 11.9361ZM4.34314 10.4994C4.34314 11.2932 4.99133 11.9361 5.79084 11.9361C6.59031 11.9361 7.23851 11.2932 7.23851 10.4994C7.23851 9.706 6.59034 9.06265 5.79084 9.06265C4.99136 9.06265 4.34314 9.70595 4.34314 10.4994Z" fill="white"/>
</svg>
