<svg width="29" height="28" viewBox="0 0 29 28" fill="none" xmlns="http://www.w3.org/2000/svg">
<path d="M27.9208 21.7032V24.6411C27.9208 25.2624 27.4171 25.7661 26.7958 25.7661H3.51582C2.8945 25.7661 2.39082 25.2624 2.39082 24.6411V21.7032C2.39082 21.1978 2.69835 20.6883 3.20929 20.3508C3.62073 20.0791 4.0912 19.7191 4.46567 19.2887C4.83396 18.8654 5.17151 18.3018 5.17151 17.6355C5.17151 16.9693 4.83396 16.4057 4.46567 15.9824C4.0912 15.552 3.62073 15.192 3.20929 14.9203C2.69835 14.5828 2.39082 14.0733 2.39082 13.5679V10.63C2.39082 10.0087 2.8945 9.50502 3.51582 9.50502H26.7958C27.4171 9.50502 27.9208 10.0087 27.9208 10.63V13.5679C27.9208 14.0733 27.6133 14.5828 27.1024 14.9203C26.6909 15.192 26.2204 15.552 25.846 15.9824C25.4777 16.4057 25.1401 16.9693 25.1401 17.6355C25.1401 18.3018 25.4777 18.8654 25.846 19.2887C26.2204 19.7191 26.6909 20.0791 27.1024 20.3508C27.6133 20.6883 27.9208 21.1978 27.9208 21.7032Z" stroke="#74A1B9" stroke-width="1.35" stroke-linecap="round" stroke-linejoin="round"/>
<path d="M13.2916 15.4772H20.2073" stroke="#74A1B9" stroke-width="1.35" stroke-linecap="round" stroke-linejoin="round"/>
<path d="M13.2916 19.7705H20.2073" stroke="#74A1B9" stroke-width="1.35" stroke-linecap="round" stroke-linejoin="round"/>
<circle cx="9.99867" cy="19.7705" r="0.818982" fill="#74A1B9"/>
<circle cx="9.99867" cy="15.6509" r="0.818982" fill="#74A1B9"/>
</svg>
