<svg width="37" height="37" viewBox="0 0 37 37" fill="none" xmlns="http://www.w3.org/2000/svg">
<g filter="url(#filter0_b_0_336)">
<circle cx="18.2494" cy="18.5256" r="16.8988" fill="url(#paint0_linear_0_336)"/>
</g>
<path fill-rule="evenodd" clip-rule="evenodd" d="M12.7984 9.97014C12.7984 9.50357 13.1767 9.12534 13.6432 9.12534H22.6221C23.0887 9.12534 23.4669 9.50357 23.4669 9.97014V11.7321C23.4669 12.1987 23.0887 12.5769 22.6221 12.5769H13.6432C13.1767 12.5769 12.7984 12.1987 12.7984 11.7321V9.97014ZM13.7398 14.9247V13.4703H22.5256V14.8816L24.2707 16.38C24.4576 16.5405 24.5651 16.7746 24.5651 17.0209V26.7703C24.5651 27.2369 24.1869 27.6151 23.7203 27.6151H12.545C12.0784 27.6151 11.7002 27.2369 11.7002 26.7703V17.0272C11.7002 16.7772 11.8109 16.5401 12.0026 16.3796L13.7398 14.9247ZM17.0895 17.6873C16.9557 17.6873 16.8404 17.7814 16.8136 17.9125L16.0028 21.8808C15.9671 22.0553 16.1005 22.2187 16.2787 22.2187H17.2843C17.4399 22.2187 17.5659 22.3448 17.5659 22.5003V24.16C17.5659 24.4439 17.9383 24.5494 18.0873 24.3078L20.5113 20.3745C20.627 20.1868 20.492 19.9451 20.2716 19.9451H19.6005C19.4003 19.9451 19.2641 19.7421 19.3399 19.5569L19.946 18.0755C20.0218 17.8903 19.8856 17.6873 19.6854 17.6873H17.0895Z" fill="white"/>
<mask id="mask0_0_336" style="mask-type:luminance" maskUnits="userSpaceOnUse" x="11" y="9" width="14" height="19">
<path fill-rule="evenodd" clip-rule="evenodd" d="M12.7984 9.97014C12.7984 9.50357 13.1767 9.12534 13.6432 9.12534H22.6221C23.0887 9.12534 23.4669 9.50357 23.4669 9.97014V11.7321C23.4669 12.1987 23.0887 12.5769 22.6221 12.5769H13.6432C13.1767 12.5769 12.7984 12.1987 12.7984 11.7321V9.97014ZM13.7398 14.9247V13.4703H22.5256V14.8816L24.2707 16.38C24.4576 16.5405 24.5651 16.7746 24.5651 17.0209V26.7703C24.5651 27.2369 24.1869 27.6151 23.7203 27.6151H12.545C12.0784 27.6151 11.7002 27.2369 11.7002 26.7703V17.0272C11.7002 16.7772 11.8109 16.5401 12.0026 16.3796L13.7398 14.9247ZM17.0895 17.6873C16.9557 17.6873 16.8404 17.7814 16.8136 17.9125L16.0028 21.8808C15.9671 22.0553 16.1005 22.2187 16.2787 22.2187H17.2843C17.4399 22.2187 17.5659 22.3448 17.5659 22.5003V24.16C17.5659 24.4439 17.9383 24.5494 18.0873 24.3078L20.5113 20.3745C20.627 20.1868 20.492 19.9451 20.2716 19.9451H19.6005C19.4003 19.9451 19.2641 19.7421 19.3399 19.5569L19.946 18.0755C20.0218 17.8903 19.8856 17.6873 19.6854 17.6873H17.0895Z" fill="white"/>
</mask>
<g mask="url(#mask0_0_336)">
</g>
<defs>
<filter id="filter0_b_0_336" x="-2.64941" y="-2.37323" width="41.7974" height="41.7976" filterUnits="userSpaceOnUse" color-interpolation-filters="sRGB">
<feFlood flood-opacity="0" result="BackgroundImageFix"/>
<feGaussianBlur in="BackgroundImageFix" stdDeviation="2"/>
<feComposite in2="SourceAlpha" operator="in" result="effect1_backgroundBlur_0_336"/>
<feBlend mode="normal" in="SourceGraphic" in2="effect1_backgroundBlur_0_336" result="shape"/>
</filter>
<linearGradient id="paint0_linear_0_336" x1="2.13526" y1="3.19611" x2="2.13526" y2="35.4244" gradientUnits="userSpaceOnUse">
<stop stop-color="#A7F17C"/>
<stop offset="1" stop-color="#00E270"/>
</linearGradient>
</defs>
</svg>
