<svg width="37" height="37" viewBox="0 0 37 37" fill="none" xmlns="http://www.w3.org/2000/svg">
<g filter="url(#filter0_b_0_365)">
<circle cx="18.9217" cy="18.5424" r="16.8988" fill="url(#paint0_linear_0_365)"/>
</g>
<g filter="url(#filter1_d_0_365)">
<path fill-rule="evenodd" clip-rule="evenodd" d="M24.5443 19.3701L24.1554 24.7897H13.6299L13.448 19.5241C11.5421 19.3295 10.0552 17.7196 10.0552 15.7624C10.0552 13.6741 11.7481 11.9811 13.8365 11.9811C14.2558 11.9811 14.6591 12.0493 15.036 12.1753C15.0359 12.1622 15.0358 12.149 15.0358 12.1358C15.0358 10.0474 16.7288 8.35443 18.8172 8.35443C20.9056 8.35443 22.5985 10.0474 22.5985 12.1358C22.5985 12.1444 22.5985 12.153 22.5984 12.1615C23.0733 11.9467 23.6004 11.8271 24.1554 11.8271C26.2438 11.8271 27.9368 13.5201 27.9368 15.6085C27.9368 17.5655 26.45 19.1754 24.5443 19.3701V19.3701ZM18.8938 20.4207C18.0681 20.4207 17.3987 21.0901 17.3987 21.9158C17.3987 22.7415 18.0681 23.4109 18.8938 23.4109H19.0981C19.9238 23.4109 20.5932 22.7415 20.5932 21.9158C20.5932 21.0901 19.9238 20.4207 19.0981 20.4207H18.8938ZM14.213 25.6944H23.4421C23.8061 25.6944 24.1013 25.9896 24.1013 26.3537C24.1013 26.7177 23.8061 27.0129 23.4421 27.0129H14.213C13.8489 27.0129 13.5538 26.7177 13.5538 26.3537C13.5538 25.9896 13.8489 25.6944 14.213 25.6944Z" fill="white"/>
</g>
<defs>
<filter id="filter0_b_0_365" x="-1.97705" y="-2.35635" width="41.7974" height="41.7976" filterUnits="userSpaceOnUse" color-interpolation-filters="sRGB">
<feFlood flood-opacity="0" result="BackgroundImageFix"/>
<feGaussianBlur in="BackgroundImageFix" stdDeviation="2"/>
<feComposite in2="SourceAlpha" operator="in" result="effect1_backgroundBlur_0_365"/>
<feBlend mode="normal" in="SourceGraphic" in2="effect1_backgroundBlur_0_365" result="shape"/>
</filter>
<filter id="filter1_d_0_365" x="8.05518" y="8.35443" width="21.8813" height="22.6584" filterUnits="userSpaceOnUse" color-interpolation-filters="sRGB">
<feFlood flood-opacity="0" result="BackgroundImageFix"/>
<feColorMatrix in="SourceAlpha" type="matrix" values="0 0 0 0 0 0 0 0 0 0 0 0 0 0 0 0 0 0 127 0" result="hardAlpha"/>
<feOffset dy="2"/>
<feGaussianBlur stdDeviation="1"/>
<feColorMatrix type="matrix" values="0 0 0 0 0 0 0 0 0 0.796078 0 0 0 0 0.913725 0 0 0 1 0"/>
<feBlend mode="normal" in2="BackgroundImageFix" result="effect1_dropShadow_0_365"/>
<feBlend mode="normal" in="SourceGraphic" in2="effect1_dropShadow_0_365" result="shape"/>
</filter>
<linearGradient id="paint0_linear_0_365" x1="2.80762" y1="3.21299" x2="2.80762" y2="35.4412" gradientUnits="userSpaceOnUse">
<stop stop-color="#00E7F0"/>
<stop offset="1" stop-color="#00CAEA"/>
</linearGradient>
</defs>
</svg>
