<svg width="11" height="11" viewBox="0 0 11 11" fill="none" xmlns="http://www.w3.org/2000/svg">
<path d="M1.89111 6.15216C1.61497 6.15216 1.39111 5.9283 1.39111 5.65216C1.39111 5.37602 1.61497 5.15216 1.89111 5.15216H9.97561C10.2518 5.15216 10.4756 5.37602 10.4756 5.65216C10.4756 5.9283 10.2518 6.15216 9.97561 6.15216H1.89111Z" fill="#303843"/>
<path d="M5.43359 1.60989C5.43359 1.33375 5.65745 1.10989 5.93359 1.10989C6.20974 1.10989 6.43359 1.33375 6.43359 1.60989L6.43359 9.69439C6.43359 9.97053 6.20974 10.1944 5.93359 10.1944C5.65745 10.1944 5.43359 9.97053 5.43359 9.69439L5.43359 1.60989Z" fill="#303843"/>
</svg>
