<svg width="22" height="24" viewBox="0 0 22 24" fill="none" xmlns="http://www.w3.org/2000/svg">
<path opacity="0.7" fill-rule="evenodd" clip-rule="evenodd" d="M2.40897 14.1955C1.74728 15.6815 1.56104 17.5681 1.56104 19.0968C1.56104 20.091 1.89772 20.8411 2.44342 21.3456C2.99391 21.8546 3.80561 22.1581 4.83045 22.1581H17.1693C18.1941 22.1581 19.0058 21.8546 19.5563 21.3456C20.102 20.8411 20.4387 20.091 20.4387 19.0968C20.4387 17.5681 20.2524 15.6815 19.5907 14.1955C19.2622 13.4578 18.8264 12.8413 18.2596 12.4101C17.7098 11.9919 17.0112 11.7281 16.1058 11.7184C16.095 11.7233 16.08 11.7307 16.0602 11.7413C15.9828 11.7826 15.88 11.8466 15.7395 11.9371C15.7024 11.961 15.6634 11.9863 15.6224 12.0128C15.364 12.1803 15.0309 12.3962 14.6426 12.6111C13.7401 13.1109 12.5003 13.6293 10.9999 13.6293C9.49938 13.6293 8.25963 13.1109 7.35707 12.6111C6.96884 12.3962 6.63572 12.1803 6.37728 12.0128C6.33635 11.9863 6.2973 11.961 6.2602 11.9371C6.11971 11.8466 6.01689 11.7826 5.93953 11.7413C5.91977 11.7307 5.90471 11.7233 5.89388 11.7184C4.98847 11.7281 4.28993 11.9919 3.74015 12.4101C3.17329 12.8413 2.73748 13.4578 2.40897 14.1955ZM3.13471 11.6142C3.87816 11.0487 4.80816 10.7181 5.94574 10.7181C6.1397 10.7181 6.31756 10.8095 6.41061 10.8592C6.52897 10.9224 6.66406 11.0077 6.80173 11.0964C6.8415 11.122 6.88237 11.1485 6.92439 11.1757C7.18341 11.3435 7.48592 11.5394 7.84147 11.7363C8.66479 12.1922 9.73328 12.6293 10.9999 12.6293C12.2664 12.6293 13.3349 12.1922 14.1582 11.7363C14.5138 11.5394 14.8163 11.3435 15.0753 11.1757C15.1173 11.1485 15.1582 11.122 15.198 11.0964C15.3357 11.0077 15.4707 10.9224 15.5891 10.8592C15.6822 10.8095 15.86 10.7181 16.054 10.7181C17.1916 10.7181 18.1216 11.0487 18.865 11.6142C19.6018 12.1747 20.1287 12.9452 20.5043 13.7888C21.2508 15.4653 21.4387 17.5181 21.4387 19.0968C21.4387 20.3302 21.013 21.3607 20.2352 22.0799C19.4621 22.7947 18.3891 23.1581 17.1693 23.1581H4.83045C3.61058 23.1581 2.53757 22.7947 1.76453 22.0799C0.986701 21.3607 0.561035 20.3302 0.561035 19.0968C0.561035 17.5181 0.748903 15.4653 1.49545 13.7888C1.87106 12.9452 2.3979 12.1747 3.13471 11.6142ZM10.9999 1.15808C8.27054 1.15808 6.07868 3.31158 6.07868 5.93808C6.07868 8.56458 8.27054 10.7181 10.9999 10.7181C13.7292 10.7181 15.921 8.56458 15.921 5.93808C15.921 3.31158 13.7292 1.15808 10.9999 1.15808ZM5.07868 5.93808C5.07868 2.73458 7.74329 0.158081 10.9999 0.158081C14.2564 0.158081 16.921 2.73458 16.921 5.93808C16.921 9.14158 14.2564 11.7181 10.9999 11.7181C7.74329 11.7181 5.07868 9.14158 5.07868 5.93808Z" fill="#D8D8D8"/>
</svg>
