<svg width="31" height="24" viewBox="0 0 31 24" fill="none" xmlns="http://www.w3.org/2000/svg">
<path d="M24.3098 22.4146H18.5779C16.9951 22.4146 15.7119 21.1155 15.7119 19.513V14.798" stroke="#74A1B9" stroke-width="1.6591"/>
<path d="M19.8765 21.585C19.4453 21.585 19.0957 21.9564 19.0957 22.4146C19.0957 22.8727 19.4453 23.2441 19.8765 23.2441H23.8862C27.6826 23.2441 30.7573 19.9482 30.7573 15.8861C30.7573 11.824 27.6826 8.52802 23.8862 8.52802H23.2209C22.7897 8.52802 22.4401 8.89942 22.4401 9.35757C22.4401 9.81571 22.7897 10.1871 23.2209 10.1871H23.8862C26.8171 10.1871 29.1958 12.737 29.1958 15.8861C29.1958 19.0351 26.8171 21.585 23.8862 21.585H19.8765Z" fill="#74A1B9"/>
<path fill-rule="evenodd" clip-rule="evenodd" d="M15.2424 9.34227C15.4588 8.99431 15.9652 8.99431 16.1816 9.34227L19.3511 14.4384C19.5802 14.8068 19.3153 15.2835 18.8814 15.2835H12.5426C12.1088 15.2835 11.8438 14.8068 12.073 14.4384L15.2424 9.34227Z" stroke="#74A1B9" stroke-width="1.6591"/>
<path d="M23.9928 9.35757H22.4313C22.4313 5.40211 19.4427 2.19853 15.7596 2.19853C12.0764 2.19853 9.08788 5.40211 9.08788 9.35757H7.52637C7.52637 4.48908 11.2109 0.539429 15.7596 0.539429C20.3082 0.539429 23.9928 4.48908 23.9928 9.35757Z" fill="#74A1B9"/>
<path d="M11.144 21.585C11.5752 21.585 11.9248 21.9564 11.9248 22.4146C11.9248 22.8727 11.5752 23.2441 11.144 23.2441H7.13428C3.33793 23.2441 0.263184 19.9482 0.263184 15.8861C0.263184 11.824 3.33793 8.52802 7.13428 8.52802L8.30995 8.52802C8.74115 8.52802 9.0907 8.89942 9.0907 9.35757C9.0907 9.81571 8.74115 10.1871 8.30995 10.1871H7.13428C4.20343 10.1871 1.82469 12.737 1.82469 15.8861C1.82469 19.0351 4.20343 21.585 7.13428 21.585H11.144Z" fill="#74A1B9"/>
</svg>
