<svg width="17" height="17" viewBox="0 0 17 17" fill="none" xmlns="http://www.w3.org/2000/svg">
<path fill-rule="evenodd" clip-rule="evenodd" d="M1.94276 5.40476C3.03326 2.77205 5.60229 1.05548 8.45191 1.05548C12.343 1.05548 15.4974 4.20984 15.4974 8.10094C15.4974 10.9506 13.7808 13.5196 11.1481 14.6101C8.51538 15.7006 5.48501 15.0978 3.47002 13.0828C1.45504 11.0678 0.852257 8.03746 1.94276 5.40476ZM14.1337 8.10094C14.1337 4.96295 11.5899 2.41912 8.45191 2.41912C5.316 2.42412 2.7751 4.96503 2.77009 8.10094C2.77009 11.2389 5.31393 13.7828 8.45191 13.7828C11.5899 13.7828 14.1337 11.2389 14.1337 8.10094Z" fill="#D6D6D6"/>
<path d="M15.9806 15.6646C15.8074 15.664 15.6416 15.5969 15.5189 15.4779L12.9057 12.9319C12.7309 12.7732 12.659 12.5343 12.7181 12.3088C12.7772 12.0832 12.9579 11.9071 13.1894 11.8496C13.4209 11.792 13.6662 11.8621 13.829 12.0323L16.4422 14.5783C16.5656 14.6971 16.6351 14.8591 16.6351 15.0281C16.6351 15.1971 16.5656 15.3591 16.4422 15.4779C16.3195 15.5969 16.1537 15.664 15.9806 15.6646Z" fill="#D6D6D6"/>
</svg>
