<svg width="37" height="37" viewBox="0 0 37 37" fill="none" xmlns="http://www.w3.org/2000/svg">
<g filter="url(#filter0_b_0_332)">
<ellipse cx="18.7455" cy="18.7142" rx="16.8988" ry="16.8988" fill="url(#paint0_linear_0_332)"/>
</g>
<path fill-rule="evenodd" clip-rule="evenodd" d="M10.8214 18.3441C12.847 19.4595 14.3441 17.6507 14.9734 16.6609C15.0721 16.4942 15.1346 16.3899 15.161 16.348C15.2532 16.1843 15.3011 16.0823 15.3011 16.0823C15.35 16.1703 15.3988 16.2556 15.4475 16.3383C15.4818 16.4109 15.5472 16.5173 15.6437 16.6574C17.8038 20.0236 19.8199 18.3376 20.6964 17.0349C20.7082 17.0174 20.7253 16.997 20.7712 16.9206C20.9707 16.5678 21.0848 16.3564 21.1137 16.2863C21.1638 16.536 21.2526 16.7833 21.3801 17.0283C22.0838 18.3853 23.7692 19.1129 25.0094 18.6299C25.245 18.5285 25.4626 18.417 25.6623 18.2956V25.9472C25.6623 26.5795 25.1497 27.092 24.5175 27.092H11.9662C11.3339 27.092 10.8214 26.5795 10.8214 25.9472V18.3441V18.3441ZM20.2626 20.6834C19.6304 20.6834 19.1179 21.196 19.1179 21.8282V23.952C19.1179 24.5842 19.6304 25.0967 20.2626 25.0967H21.2831C21.9153 25.0967 22.4279 24.5842 22.4279 23.952V21.8282C22.4279 21.196 21.9153 20.6834 21.2831 20.6834H20.2626ZM14.003 17.0184C12.8929 18.3256 11.7253 18.5858 10.3032 17.249C9.36418 15.7879 9.62531 13.6851 11.183 10.8938C11.4863 10.3503 12.06 10.0135 12.6825 10.0135L23.7256 10.0135C24.341 10.0135 24.9094 10.3428 25.2154 10.8768C27.4381 14.7552 27.2378 17.0474 24.7831 18.1041C23.6373 18.55 21.9757 17.5916 21.6736 16.1676C21.531 15.4952 20.8719 15.4741 20.5842 16.0823C20.5504 16.134 20.5081 16.2253 20.4849 16.2687C20.413 16.4029 20.3405 16.5428 20.2215 16.7154C19.7101 17.457 19.0716 17.9795 18.4471 18.049C17.6336 18.1395 16.7409 17.4966 15.8016 15.8045C15.575 15.3965 14.9816 15.4165 14.7831 15.8389C14.7523 15.9044 14.686 16.0309 14.5867 16.1975C14.4193 16.4781 14.2236 16.7588 14.003 17.0184Z" fill="white"/>
<mask id="mask0_0_332" style="mask-type:luminance" maskUnits="userSpaceOnUse" x="9" y="10" width="18" height="18">
<path fill-rule="evenodd" clip-rule="evenodd" d="M10.8214 18.3441C12.847 19.4595 14.3441 17.6507 14.9734 16.6609C15.0721 16.4942 15.1346 16.3899 15.161 16.348C15.2532 16.1843 15.3011 16.0823 15.3011 16.0823C15.35 16.1703 15.3988 16.2556 15.4475 16.3383C15.4818 16.4109 15.5472 16.5173 15.6437 16.6574C17.8038 20.0236 19.8199 18.3376 20.6964 17.0349C20.7082 17.0174 20.7253 16.997 20.7712 16.9206C20.9707 16.5678 21.0848 16.3564 21.1137 16.2863C21.1638 16.536 21.2526 16.7833 21.3801 17.0283C22.0838 18.3853 23.7692 19.1129 25.0094 18.6299C25.245 18.5285 25.4626 18.417 25.6623 18.2956V25.9472C25.6623 26.5795 25.1497 27.092 24.5175 27.092H11.9662C11.3339 27.092 10.8214 26.5795 10.8214 25.9472V18.3441V18.3441ZM20.2626 20.6834C19.6304 20.6834 19.1179 21.196 19.1179 21.8282V23.952C19.1179 24.5842 19.6304 25.0967 20.2626 25.0967H21.2831C21.9153 25.0967 22.4279 24.5842 22.4279 23.952V21.8282C22.4279 21.196 21.9153 20.6834 21.2831 20.6834H20.2626ZM14.003 17.0184C12.8929 18.3256 11.7253 18.5858 10.3032 17.249C9.36418 15.7879 9.62531 13.6851 11.183 10.8938C11.4863 10.3503 12.06 10.0135 12.6825 10.0135L23.7256 10.0135C24.341 10.0135 24.9094 10.3428 25.2154 10.8768C27.4381 14.7552 27.2378 17.0474 24.7831 18.1041C23.6373 18.55 21.9757 17.5916 21.6736 16.1676C21.531 15.4952 20.8719 15.4741 20.5842 16.0823C20.5504 16.134 20.5081 16.2253 20.4849 16.2687C20.413 16.4029 20.3405 16.5428 20.2215 16.7154C19.7101 17.457 19.0716 17.9795 18.4471 18.049C17.6336 18.1395 16.7409 17.4966 15.8016 15.8045C15.575 15.3965 14.9816 15.4165 14.7831 15.8389C14.7523 15.9044 14.686 16.0309 14.5867 16.1975C14.4193 16.4781 14.2236 16.7588 14.003 17.0184Z" fill="white"/>
</mask>
<g mask="url(#mask0_0_332)">
</g>
<defs>
<filter id="filter0_b_0_332" x="-2.15332" y="-2.1846" width="41.7974" height="41.7976" filterUnits="userSpaceOnUse" color-interpolation-filters="sRGB">
<feFlood flood-opacity="0" result="BackgroundImageFix"/>
<feGaussianBlur in="BackgroundImageFix" stdDeviation="2"/>
<feComposite in2="SourceAlpha" operator="in" result="effect1_backgroundBlur_0_332"/>
<feBlend mode="normal" in="SourceGraphic" in2="effect1_backgroundBlur_0_332" result="shape"/>
</filter>
<linearGradient id="paint0_linear_0_332" x1="2.63135" y1="3.38474" x2="2.63135" y2="35.613" gradientUnits="userSpaceOnUse">
<stop stop-color="#B381FC"/>
<stop offset="1" stop-color="#946DE6"/>
</linearGradient>
</defs>
</svg>
