<svg width="24" height="24" viewBox="0 0 24 24" fill="none" xmlns="http://www.w3.org/2000/svg">
<path fill-rule="evenodd" clip-rule="evenodd" d="M7.07129 11.2563C7.07129 13.699 9.09271 15.6836 11.5806 15.6836C14.0685 15.6836 16.0899 13.699 16.0899 11.2563C16.0899 8.81364 14.0685 6.82898 11.5806 6.82898C9.09271 6.82898 7.07129 8.81364 7.07129 11.2563ZM8.85947 11.2563C8.85947 9.80598 10.1034 8.58464 11.5806 8.58464C13.0578 8.58464 14.3017 9.80598 14.3017 11.2563C14.3017 12.7066 13.0578 13.928 11.5806 13.928C10.1034 13.928 8.85947 12.7066 8.85947 11.2563Z" fill="white"/>
<path fill-rule="evenodd" clip-rule="evenodd" d="M7.52421 21.904C7.75454 21.9801 7.98488 22.0563 8.21521 22.0563C8.82943 22.0563 9.52043 21.7516 9.82754 21.066C10.2114 20.5327 10.8257 20.228 11.5166 20.228C12.1309 20.228 12.7451 20.5327 13.129 21.066C13.7432 21.8278 14.7413 22.1325 15.5859 21.8278C16.7375 21.3707 17.8892 20.7612 18.8105 19.9994C19.5015 19.4662 19.7319 18.3996 19.348 17.5616C19.0409 16.9522 19.1176 16.2665 19.4247 15.7333C19.7319 15.2 20.2693 14.8191 20.9603 14.7429C21.8816 14.6667 22.6494 13.9811 22.803 13.0669C22.8797 12.4574 22.9565 11.848 22.9565 11.2385C22.9565 10.6291 22.8797 9.94345 22.803 9.33399C22.6494 8.41981 21.9584 7.73418 20.9603 7.658C20.3461 7.58181 19.7319 7.20091 19.4247 6.66763C19.1176 6.13436 19.1176 5.44873 19.348 4.83927C19.7319 4.00128 19.5015 3.01091 18.8105 2.40146C17.8124 1.63964 16.7375 1.03019 15.5859 0.573102C14.7413 0.268375 13.7432 0.573102 13.2058 1.33492C12.8219 1.86819 12.2076 2.17292 11.5166 2.17292C10.9024 2.17292 10.2882 1.86819 9.90432 1.33492C9.2901 0.573102 8.29199 0.268375 7.44743 0.573102C6.29577 1.03019 5.22088 1.63964 4.22277 2.40146C3.45499 3.01091 3.22466 4.00128 3.60855 4.91546C3.91566 5.52491 3.83888 6.21054 3.53177 6.74382C3.22466 7.27709 2.68722 7.658 1.99622 7.73418C1.07489 7.81036 0.307111 8.49599 0.153555 9.41017C0.0767777 10.0196 0 10.6291 0 11.2385C0 11.848 0.0767777 12.5336 0.307111 13.1431C0.460666 14.0573 1.15166 14.7429 2.14977 14.8191C2.764 14.8953 3.37822 15.2762 3.68533 15.8094C3.99244 16.3427 3.99244 17.0283 3.76211 17.6378C3.37822 18.4758 3.60855 19.4662 4.29955 20.0756C5.29766 20.8374 6.37255 21.4469 7.52421 21.904ZM8.06166 2.17292H8.13843C8.18588 2.17292 8.23334 2.20202 8.29891 2.24223C8.33944 2.26708 8.38689 2.29618 8.44554 2.32528C9.13654 3.31564 10.2882 3.84891 11.5166 3.84891C12.7451 3.84891 13.8968 3.23946 14.5878 2.2491C14.6645 2.17292 14.8181 2.02055 14.9716 2.09673C15.9698 2.47764 16.8911 2.93473 17.7356 3.62037C17.8892 3.69655 17.8892 3.84891 17.8124 4.00128C17.275 5.144 17.3518 6.36291 17.966 7.42945C18.5802 8.49599 19.6551 9.18163 20.8835 9.33399C21.0371 9.33399 21.1906 9.41017 21.1906 9.56254C21.2674 10.0958 21.3442 10.6291 21.3442 11.1624C21.3442 11.6356 21.2837 12.0489 21.2164 12.5087C21.2079 12.567 21.1993 12.626 21.1906 12.686C21.1906 12.8383 21.0371 12.9145 20.8835 12.9145C19.6551 13.0669 18.5802 13.7525 17.966 14.8191C17.3518 15.8094 17.275 17.1045 17.8124 18.2472C17.8124 18.3996 17.8124 18.552 17.7356 18.6282C16.9679 19.3138 16.0465 19.8471 15.0484 20.228C14.8949 20.3041 14.7413 20.1518 14.6645 20.0756C13.9735 19.0852 12.8219 18.552 11.5934 18.552C10.365 18.552 9.21332 19.1614 8.52232 20.1518C8.44554 20.228 8.29199 20.3803 8.13843 20.3042C7.14032 19.9232 6.21899 19.4662 5.37444 18.7805C5.22088 18.7043 5.22088 18.552 5.29766 18.3996C5.8351 17.2569 5.75832 16.038 5.1441 14.9714C4.52988 13.9049 3.45499 13.2193 2.22655 13.0669C2.073 13.0669 1.91944 12.9907 1.91944 12.8383C1.84266 12.3051 1.76589 11.7718 1.76589 11.2385C1.76589 10.7653 1.82636 10.352 1.89363 9.89223C1.90216 9.83394 1.9108 9.7749 1.91944 9.7149C1.91944 9.56254 2.073 9.48636 2.22655 9.48636C3.45499 9.33399 4.52988 8.64836 5.1441 7.58181C5.75832 6.59145 5.8351 5.29636 5.29766 4.15364C5.22088 4.07746 5.22088 3.84891 5.29766 3.77273C6.14221 3.0871 7.06355 2.63001 8.06166 2.17292Z" fill="white"/>
</svg>
