<svg width="23" height="23" viewBox="0 0 23 23" fill="none" xmlns="http://www.w3.org/2000/svg">
<path fill-rule="evenodd" clip-rule="evenodd" d="M19.1703 10.5473V20.4315C19.1703 20.922 18.7645 21.3203 18.2633 21.3203H2.70449C2.20361 21.3203 1.79757 20.9224 1.79757 20.4315V5.93814C1.79757 5.44764 2.20333 5.04936 2.70449 5.04936H9.97622C10.1758 5.05612 10.3632 4.95566 10.465 4.78734C10.5668 4.61903 10.5668 4.40968 10.465 4.24137C10.3632 4.07305 10.1758 3.97259 9.97622 3.97936H2.70449C1.6005 3.97936 0.705439 4.85623 0.705078 5.93814V20.4315C0.705078 21.5137 1.60025 22.3909 2.70449 22.3909H18.264C19.3682 22.3909 20.2634 21.5137 20.2634 20.4315V10.5473C20.2634 10.2515 20.0187 10.0116 19.7168 10.0116C19.415 10.0116 19.1703 10.2515 19.1703 10.5473Z" fill="white" stroke="white"/>
<path fill-rule="evenodd" clip-rule="evenodd" d="M21.7738 3.43777L19.6301 1.33894C19.4834 1.1952 19.2696 1.13906 19.0693 1.19167C18.8689 1.24429 18.7124 1.39766 18.6587 1.59401C18.605 1.79037 18.6623 1.99987 18.809 2.14362L20.3748 3.6774C15.5232 3.46636 11.1843 6.86343 10.4202 11.6758C10.3375 12.1973 10.2986 12.7242 10.3048 13.2518C10.2973 13.4617 10.4081 13.6587 10.5933 13.7644C10.7785 13.8701 11.008 13.8674 11.1905 13.7574C11.3731 13.6474 11.479 13.4479 11.4663 13.2382C11.4601 12.7766 11.4941 12.3137 11.5678 11.8501C11.9109 9.66799 13.1274 7.70992 14.948 6.40935C16.5147 5.28485 18.4282 4.7222 20.3678 4.81566L18.8111 6.34128C18.6014 6.56631 18.6095 6.91319 18.8295 7.12858C19.0494 7.34397 19.4034 7.35162 19.6329 7.14595L22.0156 4.81089C22.3351 4.49774 22.3351 3.98784 22.0142 3.67332L21.7738 3.43777Z" fill="white" stroke="white" stroke-width="0.8"/>
</svg>
