<svg width="25" height="23" viewBox="0 0 25 23" fill="none" xmlns="http://www.w3.org/2000/svg">
<path d="M9.33912 17.7142C9.63377 17.7142 9.91292 17.7685 10.1765 17.8771C10.4402 17.9856 10.6728 18.1368 10.8744 18.3307C11.076 18.5245 11.2311 18.7533 11.3396 19.0169C11.4482 19.2805 11.5025 19.5597 11.5025 19.8543C11.5025 20.149 11.4482 20.4281 11.3396 20.6917C11.2311 20.9554 11.076 21.1841 10.8744 21.378C10.6728 21.5718 10.4402 21.7269 10.1765 21.8432C9.91292 21.9595 9.63377 22.0177 9.33912 22.0177C9.02897 22.0177 8.74595 21.9595 8.49007 21.8432C8.23419 21.7269 8.00545 21.5718 7.80385 21.378C7.60225 21.1841 7.44717 20.9554 7.33861 20.6917C7.23006 20.4281 7.17578 20.149 7.17578 19.8543C7.17578 19.5597 7.23006 19.2805 7.33861 19.0169C7.44717 18.7533 7.60225 18.5245 7.80385 18.3307C8.00545 18.1368 8.23419 17.9856 8.49007 17.8771C8.74595 17.7685 9.02897 17.7142 9.33912 17.7142Z" fill="#E2E2E2"/>
<path d="M19.0164 17.7607C19.311 17.7607 19.594 17.815 19.8654 17.9236C20.1368 18.0321 20.3694 18.1833 20.5633 18.3772C20.7571 18.571 20.9122 18.7998 21.0285 19.0634C21.1448 19.327 21.203 19.6062 21.203 19.9008C21.203 20.1955 21.1448 20.4746 21.0285 20.7382C20.9122 21.0019 20.7571 21.2306 20.5633 21.4245C20.3694 21.6183 20.1368 21.7734 19.8654 21.8897C19.594 22.006 19.311 22.0642 19.0164 22.0642C18.7217 22.0642 18.4426 22.006 18.1789 21.8897C17.9153 21.7734 17.6866 21.6183 17.4927 21.4245C17.2989 21.2306 17.1438 21.0019 17.0275 20.7382C16.9112 20.4746 16.853 20.1955 16.853 19.9008C16.853 19.6062 16.9112 19.327 17.0275 19.0634C17.1438 18.7998 17.2989 18.571 17.4927 18.3772C17.6866 18.1833 17.9153 18.0321 18.1789 17.9236C18.4426 17.815 18.7217 17.7607 19.0164 17.7607Z" fill="#E2E2E2"/>
<path d="M23.936 4.45426C24.1764 4.56189 24.347 4.69463 24.4478 4.85249C24.5486 5.01034 24.5951 5.17896 24.5874 5.35834C24.5796 5.53772 24.5525 5.69199 24.506 5.82114C24.4594 5.9503 21.7572 15.375 21.6099 15.583C21.4625 15.7911 21.1718 15.8952 20.7376 15.8952H19.621H17.4576H14.7825H12.0609H9.82779H8.54839C8.23823 15.8952 7.97848 15.8306 7.76912 15.7014C7.55977 15.5723 7.3853 15.4037 7.24573 15.1956C7.10616 14.9875 6.99373 14.7615 6.90844 14.5175C6.82314 14.2736 6.75723 14.044 6.71071 13.8287C6.6952 13.7426 6.65256 13.5345 6.58277 13.2045C6.51299 12.8744 6.42769 12.4618 6.32689 11.9667C6.22609 11.4716 6.11366 10.9191 5.9896 10.3092C5.86553 9.69936 5.74147 9.08587 5.61741 8.4688C5.41262 7.46142 5.0093 5.51471 4.78236 4.42104C4.68608 3.9571 4.2775 3.62552 3.80367 3.62552H2.87252C2.6399 3.62552 2.44606 3.57171 2.29098 3.46408C2.1359 3.35645 2.00796 3.2273 1.90716 3.07662C1.80636 2.92594 1.73657 2.76449 1.6978 2.59229C1.65903 2.42008 1.63965 2.26223 1.63965 2.11872C1.63965 1.83171 1.74433 1.59493 1.95368 1.40837C2.16304 1.22182 2.44606 1.12854 2.80274 1.12854H3.31449H3.77973H4.36127H5.15217C5.46233 1.12854 5.71046 1.17159 5.89655 1.25769C6.08264 1.3438 6.22997 1.45143 6.33852 1.58058C6.44708 1.70973 6.52462 1.84606 6.57114 1.98957C6.61766 2.13307 6.65643 2.25505 6.68745 2.3555C6.71846 2.47031 6.74948 2.63175 6.7805 2.83983C6.81151 3.04791 6.84253 3.25958 6.87354 3.47484C6.95841 3.94605 7.36412 4.29282 7.84292 4.29282H22.9242C23.3584 4.29282 23.6957 4.34663 23.936 4.45426Z" fill="#E2E2E2"/>
<path d="M12.3715 13.8721H10.7972H9.89528C9.67663 13.8721 9.49352 13.8266 9.34593 13.7355C9.19834 13.6445 9.07535 13.5256 8.97696 13.3789C8.87857 13.2322 8.79931 13.0729 8.73919 12.9009C8.67906 12.7289 8.63259 12.5671 8.5998 12.4153C8.58887 12.3546 8.02136 10.1965 7.97217 9.96387" stroke="white" stroke-linecap="round"/>
</svg>
