<svg width="11" height="12" viewBox="0 0 11 12" fill="none" xmlns="http://www.w3.org/2000/svg">
<path fill-rule="evenodd" clip-rule="evenodd" d="M10.5296 4.53335C10.4835 4.39659 10.3603 4.30056 10.2164 4.28941L6.90343 4.03259L5.64369 0.790915C5.58994 0.652589 5.45676 0.561462 5.30836 0.561462C5.15996 0.561462 5.02679 0.652589 4.97303 0.790915L3.71333 4.03259L0.400331 4.28941C0.256465 4.30056 0.133188 4.39659 0.0871635 4.53335C0.0411387 4.6701 0.0812875 4.82113 0.18913 4.91699L2.73852 7.18292L1.94187 10.5966C1.90849 10.7396 1.96543 10.8886 2.0857 10.9729C2.206 11.0572 2.36546 11.06 2.48855 10.9798L5.30836 9.14335L8.12819 10.9798C8.18795 11.0187 8.25626 11.0381 8.32451 11.0381C8.39686 11.0381 8.46914 11.0163 8.53103 10.9729C8.65131 10.8886 8.70825 10.7396 8.67486 10.5966L7.87822 7.18289L10.4276 4.91699C10.5355 4.82113 10.5756 4.6701 10.5296 4.53335Z" fill="url(#paint0_linear_0_34)"/>
<defs>
<linearGradient id="paint0_linear_0_34" x1="0.0683594" y1="0.561462" x2="0.0683594" y2="11.0381" gradientUnits="userSpaceOnUse">
<stop stop-color="#FBDA5B"/>
<stop offset="1" stop-color="#F6B32E"/>
</linearGradient>
</defs>
</svg>
