<svg width="12" height="12" viewBox="0 0 12 12" fill="none" xmlns="http://www.w3.org/2000/svg">
<path fill-rule="evenodd" clip-rule="evenodd" d="M11.451 4.5187C11.4049 4.38195 11.2816 4.28591 11.1378 4.27476L7.82481 4.01794L6.56508 0.776266C6.51133 0.63794 6.37815 0.546814 6.22975 0.546814C6.08135 0.546814 5.94818 0.63794 5.89442 0.776266L4.63471 4.01794L1.32172 4.27476C1.17785 4.28591 1.05458 4.38195 1.00855 4.5187C0.962525 4.65546 1.00267 4.80648 1.11052 4.90234L3.6599 7.16827L2.86326 10.5819C2.82988 10.725 2.88681 10.8739 3.00709 10.9583C3.12738 11.0426 3.28685 11.0453 3.40993 10.9651L6.22975 9.1287L9.04958 10.9651C9.10933 11.004 9.17765 11.0234 9.2459 11.0234C9.31824 11.0234 9.39053 11.0016 9.45242 10.9583C9.5727 10.8739 9.62964 10.725 9.59625 10.5819L8.79961 7.16824L11.349 4.90234C11.4568 4.80648 11.497 4.65546 11.451 4.5187Z" fill="#FCDF9A"/>
</svg>
