<svg width="27" height="28" viewBox="0 0 27 28" fill="none" xmlns="http://www.w3.org/2000/svg">
<path d="M26.3165 10.5052H6.50981C3.9641 10.5052 1.90039 8.43204 1.90039 5.8746C1.90039 3.31717 3.9641 1.24396 6.50981 1.24396L22.6947 1.24396C23.1597 1.24396 23.5367 1.6209 23.5367 2.08589V5.20518" stroke="#74A1B9" stroke-width="1.2629"/>
<path d="M26.3432 21.2022C25.1714 21.2022 23.4138 21.2022 21.0703 21.2022C19.2268 21.2022 17.7324 19.8829 17.7324 18.2554C17.7324 16.628 19.2268 15.3087 21.0703 15.3087C23.5311 15.3087 25.3767 15.3087 26.607 15.3087" stroke="#74A1B9" stroke-width="1.2629"/>
<path d="M7.87576 10.5329V6.88901C7.87576 5.95903 8.62965 5.20514 9.55963 5.20514H24.6326C25.5626 5.20514 26.3165 5.95903 26.3165 6.88901V24.8491C26.3165 25.7791 25.5626 26.533 24.6326 26.533H6.11007C3.78513 26.533 1.90039 24.6967 1.90039 22.4315V12.4872L1.90039 5.75314" stroke="#74A1B9" stroke-width="1.2629"/>
</svg>
